<svg xmlns="http://www.w3.org/2000/svg" viewBox="0 0 500 500" fill="none">
  <!-- Armenian-inspired geometric carpet motif — diamonds, stars, lozenges -->
  <g stroke="#A88753" stroke-width="0.8" opacity="0.1">
    <!-- Central star -->
    <polygon points="250,80 265,115 305,115 272,138 285,175 250,152 215,175 228,138 195,115 235,115"/>
    <!-- Surrounding diamonds -->
    <polygon points="250,40 270,80 250,120 230,80"/>
    <polygon points="370,160 410,180 370,200 330,180"/>
    <polygon points="130,160 170,180 130,200 90,180"/>
    <polygon points="250,320 270,360 250,400 230,360"/>
    <!-- Geometric border lines -->
    <rect x="180" y="60" width="140" height="140" transform="rotate(45 250 130)" stroke-width="0.5"/>
    <rect x="200" y="80" width="100" height="100" transform="rotate(45 250 130)" stroke-width="0.5"/>
    <!-- Repeat pattern elements -->
    <polygon points="420,60 435,90 420,120 405,90"/>
    <polygon points="80,60 95,90 80,120 65,90"/>
    <polygon points="420,380 435,410 420,440 405,410"/>
    <polygon points="80,380 95,410 80,440 65,410"/>
    <!-- Cross-hatch accents -->
    <line x1="200" y1="0" x2="200" y2="500" stroke-width="0.3" stroke-dasharray="4 12"/>
    <line x1="300" y1="0" x2="300" y2="500" stroke-width="0.3" stroke-dasharray="4 12"/>
    <line x1="0" y1="200" x2="500" y2="200" stroke-width="0.3" stroke-dasharray="4 12"/>
    <line x1="0" y1="300" x2="500" y2="300" stroke-width="0.3" stroke-dasharray="4 12"/>
    <!-- Diagonal lattice -->
    <line x1="0" y1="0" x2="500" y2="500" stroke-width="0.25" stroke-dasharray="6 20"/>
    <line x1="500" y1="0" x2="0" y2="500" stroke-width="0.25" stroke-dasharray="6 20"/>
  </g>
</svg>
